<svg width="95" height="53" viewBox="0 0 95 53" fill="none" xmlns="http://www.w3.org/2000/svg">
<mask id="mask0_797_129" style="mask-type:alpha" maskUnits="userSpaceOnUse" x="16" y="16" width="24" height="34">
<path d="M39.0886 16.6193H36.5481C31.7331 16.6193 27.4651 19.4705 25.9744 23.683L16.6801 49.9478H22.4013C25.3195 49.9478 27.9061 48.2198 28.8096 45.6668L39.0886 16.6193Z" fill="#D9D9D9"/>
</mask>
<g mask="url(#mask0_797_129)">
<path d="M38.1755 16.8558H35.6351C30.82 16.8558 26.552 19.707 25.0613 23.9195L15.767 50.1844H21.4882C24.4064 50.1844 26.993 48.4563 27.8965 45.9033L38.1755 16.8558Z" fill="url(#paint0_linear_797_129)"/>
</g>
<mask id="mask1_797_129" style="mask-type:alpha" maskUnits="userSpaceOnUse" x="0" y="16" width="23" height="34">
<path d="M0 16.6193C6.41467 16.994 11.9397 20.9143 13.9636 26.5273L22.4086 49.9478H16.6874C13.7692 49.9478 11.1825 48.2198 10.2791 45.6668L0 16.6193Z" fill="#D9D9D9"/>
</mask>
<g mask="url(#mask1_797_129)">
<mask id="mask2_797_129" style="mask-type:alpha" maskUnits="userSpaceOnUse" x="-6" y="-1" width="21" height="35">
<path d="M-5.98914 -0.124329C0.438024 0.251124 5.98884 4.14669 8.08147 9.75043L14.9296 28.0887L5.80484 33.2043L-5.98914 -0.124329Z" fill="url(#paint1_linear_797_129)"/>
</mask>
<g mask="url(#mask2_797_129)">
<path d="M-5.98914 -0.124329C0.438024 0.251124 5.98884 4.14669 8.08147 9.75043L14.9296 28.0887L5.80484 33.2043L-5.98914 -0.124329Z" fill="url(#paint2_linear_797_129)"/>
</g>
<path d="M-6.12463 -0.0466919C0.302526 0.32876 5.85331 4.22438 7.94594 9.82812L14.7942 28.1663L11.9239 29.7753L13.6817 28.7421C13.6781 28.7284 13.2926 27.228 12.9546 26.294C12.6268 25.3885 11.9851 24.0251 11.9851 24.0251C10.2886 20.0245 4.89386 17.6298 1.17261 17.3969C1.17261 17.3969 3.23078 21.8029 4.29982 24.7101C5.33787 27.533 6.52992 31.8993 6.74109 32.6808L5.66929 33.2818L-6.12463 -0.0466919Z" fill="url(#paint3_linear_797_129)"/>
<path d="M6.23389 34.911L16.8485 29.1754L22.4773 50.0075H17.3304L14.9849 49.8876L12.9652 49.1083L11.6622 48.0893L10.75 46.8305L6.23389 34.911Z" fill="url(#paint4_linear_797_129)"/>
</g>
<path d="M34.0092 32.4025L30.9612 46.2416L25.1247 51.6973L16.1753 52.3627L9.8201 48.5038L5.9939 33.9328L6.97119 33.3059C9.07447 41.3697 12.9551 48.266 18.5657 48.266C21.8697 48.2659 25.5061 46.0454 27.5337 42.5243L30.426 36.9366L33.6771 29.6102L34.0092 32.4025Z" fill="url(#paint5_linear_797_129)"/>
<mask id="mask3_797_129" style="mask-type:alpha" maskUnits="userSpaceOnUse" x="15" y="0" width="75" height="15">
<path d="M89.6397 14.1557C89.6397 14.5138 72.6006 0 52.1577 0C31.7148 0 15.6094 14.5138 15.6094 14.1557C18.9704 14.1557 31.7148 4.1917 52.1577 4.1917C72.6006 4.1917 86.8448 14.2513 89.6397 14.1557Z" fill="url(#paint6_linear_797_129)"/>
</mask>
<g mask="url(#mask3_797_129)">
<path d="M94.0453 16.1085C94.0453 16.483 75.0664 1.30188 52.2962 1.30188C29.5261 1.30188 11.5872 16.483 11.5872 16.1085C15.3309 16.1085 29.5261 5.6863 52.2962 5.6863C75.0664 5.6863 90.9322 16.2084 94.0453 16.1085Z" fill="url(#paint7_linear_797_129)"/>
<path d="M89.6398 13.0988C89.6398 13.4836 72.6007 -2.11456 52.1578 -2.11456C31.7149 -2.11456 15.6095 13.4836 15.6095 13.0988C18.9706 13.0988 31.7149 2.39031 52.1578 2.39031C72.6007 2.39031 86.845 13.2015 89.6398 13.0988Z" fill="url(#paint8_linear_797_129)"/>
</g>
<path d="M94.5724 44.9947H84.7612C84.9749 46.0803 85.458 46.8753 86.2105 47.3797C86.9724 47.8755 87.7993 48.1234 88.6912 48.1234C90.0663 48.1234 91.2184 47.5976 92.1475 46.5462L93.9174 47.7772C92.5888 49.3586 90.8096 50.1493 88.5797 50.1493C86.8702 50.1493 85.4394 49.6108 84.2873 48.5337C83.1352 47.4566 82.5592 46.1188 82.5592 44.5203C82.5592 43.0243 83.1399 41.7293 84.3013 40.6351C85.4719 39.5324 86.8981 38.981 88.5797 38.981C90.2335 38.981 91.6504 39.5409 92.8304 40.6607C94.0103 41.772 94.591 43.2167 94.5724 44.9947ZM85.012 43.2124H92.036C91.2555 41.7592 90.1035 41.0326 88.5797 41.0326C86.9167 41.0326 85.7274 41.7592 85.012 43.2124Z" fill="#1B2559"/>
<path d="M80.7334 46.6231V49.1748C79.4977 49.8245 78.2991 50.1493 77.1378 50.1493C75.549 50.1493 74.1554 49.6022 72.9568 48.508C71.7676 47.4053 71.173 46.1316 71.173 44.687C71.173 43.0457 71.7676 41.6865 72.9568 40.6095C74.1461 39.5238 75.6373 38.981 77.4304 38.981C78.4989 38.981 79.5999 39.2375 80.7334 39.7504V42.2379C79.5163 41.5198 78.3642 41.1608 77.2771 41.1608C76.2737 41.1608 75.3957 41.4857 74.6431 42.1353C73.8906 42.785 73.5143 43.5458 73.5143 44.4177C73.5143 45.4007 73.8674 46.2299 74.5735 46.9052C75.2796 47.572 76.1436 47.9054 77.1656 47.9054C78.2062 47.9054 79.3955 47.478 80.7334 46.6231Z" fill="#1B2559"/>
<path d="M65.3896 35.8022C65.3896 35.3406 65.5755 34.9431 65.9471 34.6098C66.3187 34.2678 66.7601 34.0969 67.2711 34.0969C67.7728 34.0969 68.2048 34.2678 68.5672 34.6098C68.9388 34.9431 69.1246 35.3406 69.1246 35.8022C69.1246 36.2724 68.9388 36.6742 68.5672 37.0075C68.2048 37.3409 67.7728 37.5076 67.2711 37.5076C66.7601 37.5076 66.3187 37.3409 65.9471 37.0075C65.5755 36.6742 65.3896 36.2724 65.3896 35.8022ZM66.0725 39.2771H68.4696V49.8555H66.0725V39.2771Z" fill="#1B2559"/>
<path d="M58.8674 36.1973H61.2924V39.2746H63.6894V41.3134H61.2924V49.8531H58.8674V41.3134H56.9581V39.249H58.8674V36.1973Z" fill="#1B2559"/>
<path d="M50.6867 39.2759V41.4557C51.2256 40.5838 51.7505 39.9555 52.2615 39.5708C52.7818 39.1776 53.4554 38.981 54.2823 38.981C54.5146 38.981 54.849 39.0323 55.2857 39.1349L54.5471 41.366C54.0825 41.2805 53.7759 41.2378 53.6273 41.2378C52.8097 41.2378 52.1222 41.5027 51.5647 42.0327C51.0165 42.5542 50.7424 43.2081 50.7424 43.9946V49.8544H48.3175V39.2759H50.6867Z" fill="#1B2559"/>
<path d="M45.21 44.9957H35.3987C35.6124 46.0813 36.0956 46.8763 36.8481 47.3806C37.61 47.8764 38.4369 48.1243 39.3288 48.1243C40.7039 48.1243 41.8559 47.5986 42.785 46.5472L44.555 47.7781C43.2264 49.3596 41.4471 50.1503 39.2173 50.1503C37.5078 50.1503 36.077 49.6117 34.9249 48.5347C33.7728 47.4576 33.1968 46.1198 33.1968 44.5213C33.1968 43.0253 33.7775 41.7303 34.9388 40.6361C36.1095 39.5334 37.5357 38.982 39.2173 38.982C40.8711 38.982 42.288 39.5419 43.4679 40.6617C44.6479 41.773 45.2286 43.2177 45.21 44.9957ZM35.6496 43.2134H42.6736C41.8931 41.7602 40.741 41.0336 39.2173 41.0336C37.5542 41.0336 36.365 41.7602 35.6496 43.2134ZM37.6146 37.3279L39.4682 33.7633H42.7572L39.6772 37.3279H37.6146Z" fill="#1B2559"/>
<defs>
<linearGradient id="paint0_linear_797_129" x1="43.5216" y1="5.40657" x2="13.2609" y2="61.2633" gradientUnits="userSpaceOnUse">
<stop stop-color="white"/>
<stop offset="0.474208" stop-color="#7C3AED"/>
<stop offset="0.688674" stop-color="#2C18A3"/>
</linearGradient>
<linearGradient id="paint1_linear_797_129" x1="4.47024" y1="-0.124329" x2="-11.7211" y2="30.9043" gradientUnits="userSpaceOnUse">
<stop stop-color="#4361EE"/>
<stop offset="1" stop-color="#7C3AED"/>
</linearGradient>
<linearGradient id="paint2_linear_797_129" x1="4.47024" y1="-0.124329" x2="-11.7211" y2="30.9043" gradientUnits="userSpaceOnUse">
<stop offset="1" stop-color="#7C3AED"/>
</linearGradient>
<linearGradient id="paint3_linear_797_129" x1="-29.8399" y1="30.2247" x2="-0.424194" y2="10.5236" gradientUnits="userSpaceOnUse">
<stop offset="0.422047" stop-color="white"/>
<stop offset="1" stop-color="white" stop-opacity="0"/>
</linearGradient>
<linearGradient id="paint4_linear_797_129" x1="7.23184" y1="31.8446" x2="17.1582" y2="54.8403" gradientUnits="userSpaceOnUse">
<stop stop-color="#7F96FD"/>
<stop offset="1" stop-color="#4361EE"/>
</linearGradient>
<linearGradient id="paint5_linear_797_129" x1="22.347" y1="51.703" x2="5.42596" y2="35.9776" gradientUnits="userSpaceOnUse">
<stop stop-color="white" stop-opacity="0"/>
<stop offset="1" stop-color="white" stop-opacity="0.4"/>
</linearGradient>
<linearGradient id="paint6_linear_797_129" x1="15.6094" y1="7.08112" x2="89.6397" y2="7.08112" gradientUnits="userSpaceOnUse">
<stop offset="0.0384615" stop-color="#FF5B5B"/>
<stop offset="0.625" stop-color="#FF0080"/>
<stop offset="0.75" stop-color="#FF1777"/>
<stop offset="1" stop-color="#FF0080"/>
</linearGradient>
<linearGradient id="paint7_linear_797_129" x1="5.08011" y1="16.1153" x2="93.5027" y2="4.55773" gradientUnits="userSpaceOnUse">
<stop offset="0.125" stop-color="#F980BF"/>
<stop offset="0.274038" stop-color="#E962DA"/>
<stop offset="0.456731" stop-color="#7C3AED"/>
<stop offset="1" stop-color="#43AAEE"/>
</linearGradient>
<linearGradient id="paint8_linear_797_129" x1="14.5081" y1="13.1058" x2="89.3445" y2="3.27872" gradientUnits="userSpaceOnUse">
<stop stop-color="#FFBCAA"/>
<stop offset="0.168269" stop-color="#FF93DB"/>
<stop offset="0.341346" stop-color="#AA5DED"/>
<stop offset="0.788462" stop-color="#7CBFFA"/>
</linearGradient>
</defs>
</svg>
