<svg width="481" height="891" viewBox="0 0 481 891" fill="none" xmlns="http://www.w3.org/2000/svg">
<circle cx="252.983" cy="398.777" r="210.5" fill="white"/>
<path d="M244.483 528.777H258.483C260.969 528.777 262.983 530.792 262.983 533.277V546.944C262.983 548.76 261.891 550.398 260.214 551.097L253.214 554.014C252.106 554.476 250.86 554.476 249.753 554.014L242.753 551.097C241.076 550.398 239.984 548.76 239.983 546.944V533.277C239.983 530.792 241.998 528.777 244.483 528.777Z" fill="#4361EE" stroke="#4361EE"/>
<path d="M32.4837 816.277L32.4838 759.777C32.4838 748.179 41.8858 738.777 53.4838 738.777L230.484 738.777C242.082 738.777 251.484 729.375 251.484 717.777L251.484 546.777" stroke="#4361EE" stroke-width="12"/>
<path d="M239.483 477.777H263.483C273.701 477.777 281.983 486.06 281.983 496.277V516.556C281.983 523.855 277.692 530.472 271.027 533.449L259.783 538.469C255.121 540.551 249.806 540.614 245.096 538.642L232.339 533.301C225.461 530.422 220.984 523.694 220.983 516.237V496.277L220.989 495.799C221.243 485.803 229.426 477.777 239.483 477.777Z" fill="#4361EE" stroke="#4361EE"/>
<path d="M217.702 475.777H287.335C292.111 475.777 295.983 479.649 295.983 484.425C295.983 488.368 293.317 491.811 289.5 492.798L255.783 501.519C252.642 502.332 249.341 502.303 246.214 501.437L215.376 492.898C211.599 491.852 208.983 488.415 208.983 484.496C208.983 479.68 212.887 475.777 217.702 475.777Z" fill="#4361EE" stroke="#4361EE"/>
<path d="M260.961 304.947H246.961C244.476 304.947 242.461 302.933 242.461 300.447V286.78C242.461 284.964 243.554 283.326 245.23 282.627L252.23 279.71C253.338 279.249 254.584 279.249 255.691 279.71L262.691 282.627C264.368 283.326 265.461 284.964 265.461 286.78V300.447C265.461 302.933 263.446 304.947 260.961 304.947Z" fill="#4361EE" stroke="#4361EE"/>
<path d="M480.483 94.9468L472.961 94.9468L274.96 94.9466C263.362 94.9466 253.96 104.349 253.96 115.947L253.96 286.947" stroke="#4361EE" stroke-width="12"/>
<path d="M265.961 355.947H241.961C231.744 355.947 223.461 347.665 223.461 337.447V317.168C223.461 309.869 227.752 303.252 234.417 300.275L245.661 295.255C250.323 293.173 255.639 293.11 260.349 295.082L273.105 300.423C279.984 303.303 284.461 310.03 284.461 317.487V337.447L284.455 337.925C284.202 347.921 276.019 355.947 265.961 355.947Z" fill="#4361EE" stroke="#4361EE"/>
<path d="M287.742 357.947H218.109C213.333 357.947 209.461 354.075 209.461 349.299C209.461 345.356 212.128 341.913 215.944 340.926L249.661 332.205C252.803 331.393 256.103 331.421 259.23 332.287L290.068 340.826C293.845 341.872 296.461 345.309 296.461 349.229C296.461 354.044 292.557 357.947 287.742 357.947Z" fill="#4361EE" stroke="#4361EE"/>
<rect x="309.492" y="459.861" width="2" height="13" rx="1" transform="rotate(-76 309.492 459.861)" fill="#4361EE" stroke="#4361EE"/>
<rect x="305.877" y="466.933" width="2" height="13" rx="1" transform="rotate(-36 305.877 466.933)" fill="#4361EE" stroke="#4361EE"/>
<rect x="321.615" y="445.573" width="2" height="13" rx="1" transform="rotate(65 321.615 445.573)" fill="#4361EE" stroke="#4361EE"/>
<path d="M243.5 363.777V397.277C243.5 400.314 241.038 402.777 238 402.777H236C232.962 402.777 230.5 400.314 230.5 397.277V363.777H243.5Z" fill="#4361EE" stroke="#4361EE"/>
<rect x="191.67" y="365.678" width="2" height="13" rx="1" transform="rotate(110 191.67 365.678)" fill="#4361EE" stroke="#4361EE"/>
<rect x="196.004" y="359.023" width="2" height="13" rx="1" transform="rotate(150 196.004 359.023)" fill="#4361EE" stroke="#4361EE"/>
<rect x="178.12" y="378.621" width="2" height="13" rx="1" transform="rotate(-109 178.12 378.621)" fill="#4361EE" stroke="#4361EE"/>
<path d="M278.5 363.777V397.277C278.5 400.314 276.038 402.777 273 402.777H271C267.962 402.777 265.5 400.314 265.5 397.277V363.777H278.5Z" fill="#4361EE" stroke="#4361EE"/>
</svg>
