<svg width="606" height="500" viewBox="0 0 606 500" fill="none" xmlns="http://www.w3.org/2000/svg">
<path d="M515.659 499.172C565.553 499.172 606 491.431 606 481.881C606 472.332 565.553 464.591 515.659 464.591C465.765 464.591 425.317 472.332 425.317 481.881C425.317 491.431 465.765 499.172 515.659 499.172Z" fill="#4C6DF4" fill-opacity="0.46"/>
<circle cx="283.267" cy="232.295" r="232.295" fill="url(#paint0_linear_1147_82)"/>
<path d="M477.473 307.648C459.273 307.648 443.585 303.335 430.41 294.711C417.236 286.018 407.083 273.556 399.952 257.326C392.822 241.027 389.29 221.435 389.358 198.549C389.426 175.663 392.992 156.24 400.054 140.281C407.185 124.255 417.304 112.065 430.41 103.711C443.585 95.2905 459.273 91.0801 477.473 91.0801C495.673 91.0801 511.36 95.2905 524.535 103.711C537.777 112.065 547.964 124.255 555.095 140.281C562.225 156.308 565.757 175.731 565.689 198.549C565.689 221.503 562.123 241.129 554.993 257.428C547.862 273.726 537.71 286.188 524.535 294.812C511.428 303.369 495.741 307.648 477.473 307.648ZM477.473 266.392C488.338 266.392 497.133 260.857 503.856 249.788C510.579 238.65 513.907 221.571 513.839 198.549C513.839 183.473 512.311 171.045 509.255 161.266C506.199 151.419 501.955 144.084 496.522 139.263C491.089 134.441 484.739 132.03 477.473 132.03C466.675 132.03 457.948 137.497 451.293 148.431C444.638 159.296 441.276 176.003 441.208 198.549C441.14 213.829 442.6 226.494 445.589 236.545C448.645 246.596 452.923 254.1 458.424 259.057C463.924 263.947 470.274 266.392 477.473 266.392Z" fill="url(#paint1_radial_1147_82)"/>
<path d="M274.097 307.648C255.897 307.648 240.209 303.335 227.034 294.711C213.86 286.018 203.707 273.556 196.576 257.326C189.446 241.027 185.914 221.435 185.982 198.549C186.05 175.663 189.616 156.24 196.678 140.281C203.809 124.255 213.928 112.065 227.034 103.711C240.209 95.2905 255.897 91.0801 274.097 91.0801C292.297 91.0801 307.984 95.2905 321.159 103.711C334.401 112.065 344.588 124.255 351.719 140.281C358.849 156.308 362.381 175.731 362.313 198.549C362.313 221.503 358.747 241.129 351.617 257.428C344.486 273.726 334.334 286.188 321.159 294.812C308.052 303.369 292.365 307.648 274.097 307.648ZM274.097 266.392C284.962 266.392 293.757 260.857 300.48 249.788C307.203 238.65 310.531 221.571 310.463 198.549C310.463 183.473 308.935 171.045 305.879 161.266C302.823 151.419 298.579 144.084 293.146 139.263C287.713 134.441 281.363 132.03 274.097 132.03C263.299 132.03 254.572 137.497 247.917 148.431C241.262 159.296 237.9 176.003 237.832 198.549C237.764 213.829 239.224 226.494 242.213 236.545C245.269 246.596 249.547 254.1 255.048 259.057C260.548 263.947 266.898 266.392 274.097 266.392Z" fill="url(#paint2_radial_1147_82)"/>
<path d="M79.15 305.406C63.938 305.406 50.4238 302.656 38.6073 297.155C26.7908 291.654 17.4531 284.082 10.5941 274.439C3.803 264.796 0.271643 253.726 0 241.231H48.8958C49.3032 248.905 52.4271 255.084 58.2675 259.77C64.1078 264.388 71.0686 266.697 79.15 266.697C85.4657 266.697 91.0684 265.305 95.9579 262.521C100.848 259.736 104.684 255.831 107.469 250.806C110.253 245.713 111.611 239.872 111.543 233.285C111.611 226.562 110.219 220.688 107.367 215.662C104.583 210.637 100.712 206.732 95.7542 203.948C90.8646 201.095 85.228 199.669 78.8444 199.669C72.8004 199.601 67.0619 200.926 61.629 203.642C56.2641 206.358 52.1894 210.06 49.4051 214.745L4.88958 206.392L13.9557 93.9321H147.808V134.577H55.4152L50.6275 183.778H51.8499C55.3133 178.006 60.882 173.252 68.5559 169.517C76.2978 165.714 85.0922 163.812 94.9393 163.812C107.435 163.812 118.572 166.733 128.351 172.573C138.198 178.345 145.94 186.359 151.577 196.613C157.281 206.868 160.134 218.616 160.134 231.859C160.134 246.188 156.738 258.887 149.947 269.957C143.224 281.026 133.784 289.719 121.628 296.035C109.54 302.282 95.3807 305.406 79.15 305.406Z" fill="url(#paint3_radial_1147_82)"/>
<path d="M471.415 307.335C453.667 307.335 438.369 303.108 425.522 294.654C412.674 286.134 402.774 273.92 395.82 258.011C388.867 242.036 385.423 222.832 385.489 200.4C385.555 177.968 389.032 158.93 395.92 143.288C402.873 127.579 412.74 115.63 425.522 107.443C438.369 99.189 453.667 95.062 471.415 95.062C489.163 95.062 504.461 99.189 517.309 107.443C530.222 115.63 540.156 127.579 547.11 143.288C554.063 158.997 557.507 178.034 557.441 200.4C557.441 222.898 553.964 242.135 547.01 258.111C540.057 274.086 530.156 286.301 517.309 294.754C504.527 303.141 489.23 307.335 471.415 307.335ZM471.415 266.897C482.011 266.897 490.587 261.472 497.143 250.622C503.7 239.706 506.945 222.965 506.878 200.4C506.878 185.622 505.388 173.441 502.408 163.856C499.428 154.204 495.289 147.015 489.991 142.289C484.693 137.563 478.501 135.2 471.415 135.2C460.886 135.2 452.376 140.559 445.886 151.275C439.396 161.926 436.118 178.3 436.051 200.4C435.985 215.377 437.409 227.791 440.323 237.642C443.303 247.494 447.475 254.849 452.839 259.708C458.203 264.501 464.395 266.897 471.415 266.897Z" fill="white" fill-opacity="0.1"/>
<path d="M273.089 307.335C255.341 307.335 240.043 303.108 227.196 294.654C214.348 286.134 204.448 273.92 197.494 258.011C190.54 242.036 187.097 222.832 187.163 200.4C187.229 177.968 190.706 158.93 197.593 143.288C204.547 127.579 214.414 115.63 227.196 107.443C240.043 99.189 255.341 95.062 273.089 95.062C290.837 95.062 306.135 99.189 318.983 107.443C331.896 115.63 341.83 127.579 348.783 143.288C355.737 158.997 359.181 178.034 359.114 200.4C359.114 222.898 355.638 242.135 348.684 258.111C341.731 274.086 331.83 286.301 318.983 294.754C306.201 303.141 290.903 307.335 273.089 307.335ZM273.089 266.897C283.685 266.897 292.261 261.472 298.817 250.622C305.373 239.706 308.618 222.965 308.552 200.4C308.552 185.622 307.062 173.441 304.082 163.856C301.102 154.204 296.963 147.015 291.665 142.289C286.367 137.563 280.175 135.2 273.089 135.2C262.559 135.2 254.05 140.559 247.56 151.275C241.07 161.926 237.792 178.3 237.725 200.4C237.659 215.377 239.083 227.791 241.997 237.642C244.977 247.494 249.149 254.849 254.513 259.708C259.877 264.501 266.069 266.897 273.089 266.897Z" fill="white" fill-opacity="0.1"/>
<path d="M82.9842 305.138C68.15 305.138 54.9714 302.443 43.4483 297.051C31.9253 291.659 22.8195 284.237 16.1308 274.785C9.50837 265.333 6.0647 254.483 5.7998 242.235H53.4813C53.8787 249.757 56.925 255.814 62.6203 260.407C68.3156 264.934 75.1035 267.197 82.9842 267.197C89.1431 267.197 94.6066 265.832 99.3748 263.103C104.143 260.374 107.885 256.547 110.6 251.621C113.315 246.629 114.639 240.904 114.573 234.447C114.639 227.858 113.282 222.1 110.5 217.174C107.785 212.248 104.01 208.421 99.1761 205.692C94.4079 202.896 88.9113 201.498 82.6862 201.498C76.7923 201.432 71.1963 202.73 65.8984 205.392C60.6666 208.055 56.6932 211.682 53.978 216.275L10.568 208.088L19.4089 97.8579H149.937V137.697H59.8388L55.17 185.922H56.3621C59.7395 180.264 65.1699 175.605 72.6532 171.944C80.2028 168.216 88.7789 166.352 98.3814 166.352C110.567 166.352 121.427 169.215 130.964 174.939C140.566 180.597 148.116 188.452 153.612 198.503C159.175 208.554 161.957 220.07 161.957 233.05C161.957 247.095 158.646 259.542 152.023 270.392C145.467 281.242 136.262 289.762 124.408 295.953C112.62 302.077 98.8119 305.138 82.9842 305.138Z" fill="white" fill-opacity="0.1"/>
<path d="M322.429 183.141C317.211 188.353 316.584 190.649 313.451 191.684C310.318 192.719 299.043 198.558 302.585 205.029L312.112 211.323L312.389 211.507L313.849 215.885L299.438 241.538C299.438 241.538 275.689 230.679 273.36 246.744C271.032 262.808 272.51 267.194 271.883 275.771C271.256 284.347 272.087 286.827 269.996 286.827C267.905 286.827 267.077 281.194 267.077 281.194C267.077 281.194 266.945 280.936 266.712 280.455C263.605 273.996 242.515 226.583 276.298 193.993C276.298 193.993 291.946 192.965 295.713 175.022C298.312 162.618 307.403 163.688 313.444 166.215C315.408 166.985 317.238 168.061 318.866 169.402C320.335 170.788 321.642 172.336 322.761 174.017C324.481 176.735 325.417 180.146 322.429 183.141Z" fill="#515F74"/>
<path d="M592.288 329.727C590.672 332.96 582.392 345.085 578.77 350.383L577.075 352.877C577.075 352.877 576.418 357.255 565.602 351.827C554.786 346.4 300.744 239.203 300.744 239.203L299.022 234.031L311.558 215.262L589.997 322.84C589.997 322.84 594.379 325.552 592.288 329.727Z" fill="#70779A"/>
<path opacity="0.1" d="M578.771 350.383L577.075 352.877C577.075 352.877 576.419 357.255 565.603 351.828C554.787 346.401 300.744 239.203 300.744 239.203L299.022 234.031L578.771 350.383Z" fill="black"/>
<path d="M480.11 219.251C476.754 218.36 473.797 216.364 471.715 213.586C469.634 210.807 468.55 207.408 468.638 203.938C468.726 200.467 469.981 197.128 472.201 194.458C474.421 191.789 477.476 189.946 480.872 189.227C484.269 188.508 487.808 188.954 490.92 190.495C494.031 192.035 496.532 194.579 498.02 197.716C499.507 200.853 499.893 204.4 499.117 207.783C498.34 211.167 496.446 214.19 493.739 216.364C494.477 218.234 495.392 220.029 496.472 221.725L497.247 226.609L490.396 231.5L481.849 231.668C482.603 227.124 480.912 221.543 480.11 219.251Z" fill="#FFB9B9"/>
<path d="M555.76 458.393L545.456 463.519L533.221 440.878L543.822 435.063L555.76 458.393Z" fill="#FFB7B7"/>
<path d="M484.902 467.108H474.998L472.678 440.903H484.906L484.902 467.108Z" fill="#FFB7B7"/>
<path d="M516.68 253.36C516.68 253.36 521.23 249.875 521.23 258.388L521.949 286.523L513.927 313.102L509.258 304.483L511.174 285.808L516.68 253.36Z" fill="#6C63FF"/>
<path d="M468.015 330.314C468.015 330.314 462.74 356.006 469.424 377.092L473.117 458.16L486.654 457.106L491.398 396.965L495.97 367.071L505.47 394.325L536.774 452.005L551.195 440.752C551.195 440.752 535.214 397.149 523.409 387.993L517.488 320.561L468.015 330.314Z" fill="#090814"/>
<path d="M467.059 337.185L518.597 333.86L514.718 317.79L467.614 328.318L467.059 337.185Z" fill="#D6D6E3"/>
<path d="M498.842 224.625L495.61 220.137C495.61 220.137 491.997 221.365 482.32 226.181L481.635 230.387L464.84 333.694L495.37 332.378L503.683 332.2L506.404 326.101L509.759 332.072L517.878 331.899L526.139 327.108L517.998 302.208L515.363 279.458L519.434 258.027C519.434 258.027 524.556 238.348 504.828 227.734L498.842 224.625Z" fill="#4C6DF4"/>
<path d="M430.032 302.831C430.779 303.021 431.559 303.045 432.317 302.9C433.075 302.756 433.792 302.448 434.418 301.996C435.043 301.545 435.562 300.962 435.938 300.288C436.314 299.615 436.538 298.867 436.593 298.097L454.708 293.246L447.423 286.777L431.337 292.375C430.036 292.365 428.778 292.833 427.8 293.69C426.821 294.547 426.192 295.733 426.031 297.023C425.87 298.314 426.189 299.618 426.926 300.689C427.663 301.76 428.769 302.523 430.032 302.833V302.831Z" fill="#FFB7B7"/>
<path d="M438.141 300.092C438.521 300.299 438.941 300.425 439.373 300.459C439.805 300.494 440.239 300.437 440.648 300.294L470.448 288.985C477.719 286.409 483.807 281.279 487.578 274.551L499.997 252.386C501.753 250.417 502.656 247.832 502.507 245.198C502.357 242.564 501.167 240.098 499.199 238.341C497.231 236.585 494.646 235.682 492.012 235.831C489.378 235.981 486.912 237.171 485.155 239.139L463.648 273.231L436.585 289.097C436.055 289.446 435.644 289.948 435.409 290.537C435.174 291.127 435.125 291.774 435.27 292.391L436.616 298.094C436.76 298.707 437.088 299.261 437.555 299.682C437.733 299.844 437.929 299.984 438.14 300.1L438.141 300.092Z" fill="#4C6DF4"/>
<path d="M474.845 464.786L463.48 470.6C463.48 470.6 445.697 474.839 457.275 478.362C468.853 481.884 474.066 479.38 474.066 479.38C474.066 479.38 489.214 480.168 488.97 475.942C488.726 471.715 485.811 465.774 485.811 465.774C485.811 465.774 475.674 468.423 474.845 464.786Z" fill="#090814"/>
<path d="M543.191 459.429L534.576 467.414C534.576 467.414 518.658 476.395 530.755 476.584C542.852 476.774 547.17 472.931 547.17 472.931C547.17 472.931 561.94 469.507 560.542 465.513C559.143 461.519 554.699 456.615 554.699 456.615C554.699 456.615 544.992 462.696 543.191 459.429Z" fill="#090814"/>
<path d="M486.942 209.267C486.834 208.325 486.541 207.412 486.08 206.583C485.84 206.168 485.474 205.84 485.036 205.647C484.597 205.454 484.108 205.406 483.64 205.509C482.209 205.956 481.728 208.169 480.232 208.242C479.223 208.291 478.499 207.266 478.182 206.306C477.865 205.346 477.694 204.248 476.937 203.573C476.41 203.179 475.806 202.902 475.164 202.76C471.69 201.662 468.103 199.636 466.948 196.179C466.677 195.477 466.612 194.712 466.761 193.974C467.29 191.786 470.015 191.128 472.089 190.338C474.163 189.548 476.156 188.199 478.189 187.174C480.222 186.148 482.581 185.425 484.818 185.945C485.953 186.302 487.069 186.718 488.161 187.19C491.528 188.36 495.653 187.817 498.264 190.248C499.405 191.455 500.242 192.916 500.705 194.51C502.527 199.57 503.682 205.573 500.664 210.015C498.801 212.756 496.995 215.888 493.416 216.221C489.253 216.573 487.601 212.799 486.942 209.267Z" fill="#090814"/>
<defs>
<linearGradient id="paint0_linear_1147_82" x1="283.267" y1="0" x2="283.267" y2="464.59" gradientUnits="userSpaceOnUse">
<stop stop-color="white"/>
<stop offset="1" stop-color="white" stop-opacity="0"/>
</linearGradient>
<radialGradient id="paint1_radial_1147_82" cx="0" cy="0" r="1" gradientUnits="userSpaceOnUse" gradientTransform="translate(281.757 197.852) rotate(90) scale(173.547 297.851)">
<stop stop-color="#4361EE"/>
<stop offset="1" stop-color="#9BA8E8"/>
</radialGradient>
<radialGradient id="paint2_radial_1147_82" cx="0" cy="0" r="1" gradientUnits="userSpaceOnUse" gradientTransform="translate(281.757 197.852) rotate(90) scale(173.547 297.851)">
<stop stop-color="#4361EE"/>
<stop offset="1" stop-color="#9BA8E8"/>
</radialGradient>
<radialGradient id="paint3_radial_1147_82" cx="0" cy="0" r="1" gradientUnits="userSpaceOnUse" gradientTransform="translate(281.756 197.852) rotate(90) scale(173.547 297.851)">
<stop stop-color="#4361EE"/>
<stop offset="1" stop-color="#9BA8E8"/>
</radialGradient>
</defs>
</svg>
