<svg width="1093" height="227" viewBox="0 0 1093 227" fill="none" xmlns="http://www.w3.org/2000/svg">
<ellipse cx="1043" cy="23.5" rx="176" ry="181.5" fill="url(#paint0_linear_851_95)" fill-opacity="0.4"/>
<path d="M1043 -157C1139.62 -157 1218 -76.2166 1218 23.5C1218 123.217 1139.62 204 1043 204C946.379 204 868 123.217 868 23.5C868 -76.2166 946.379 -157 1043 -157Z" stroke="white" stroke-opacity="0.3" stroke-width="2"/>
<path d="M1 -261C97.7417 -261 176 -189.726 176 -102C176 -14.2743 97.7417 57 1 57C-95.7417 57 -174 -14.2743 -174 -102C-174 -189.726 -95.7417 -261 1 -261Z" stroke="white" stroke-opacity="0.3" stroke-width="2"/>
<path d="M748.643 -11.8814C743.535 11.4243 718.882 55.2036 682.977 57.1968C647.072 59.1899 606.369 24.4315 595.301 4.49161C584.232 -15.4483 524.493 -57.0191 514.635 -20.1134C501.208 30.1547 496.643 50.3037 472.044 21.2928C447.445 -7.71822 444.119 28.2861 412.359 2.79881C386.952 -17.591 383.713 -75.741 331 -41.6839" stroke="white" stroke-opacity="0.28" stroke-width="2"/>
<path d="M507 257C507 242.817 503.922 228.773 497.942 215.67C491.961 202.567 483.196 190.661 472.146 180.632C461.096 170.604 447.977 162.649 433.539 157.221C419.102 151.794 403.627 149 388 149C372.373 149 356.898 151.794 342.461 157.221C328.023 162.649 314.904 170.604 303.854 180.632C292.804 190.661 284.039 202.567 278.058 215.67C272.078 228.773 269 242.817 269 257L314.127 257C314.127 248.196 316.038 239.477 319.75 231.343C323.463 223.209 328.904 215.818 335.764 209.593C342.624 203.367 350.767 198.428 359.73 195.059C368.693 191.69 378.299 189.956 388 189.956C397.701 189.956 407.307 191.69 416.27 195.059C425.233 198.428 433.376 203.367 440.236 209.593C447.096 215.818 452.537 223.209 456.25 231.343C459.962 239.477 461.873 248.196 461.873 257H507Z" fill="url(#paint1_linear_851_95)" fill-opacity="0.25"/>
<path d="M173 20C173 34.1828 169.922 48.2266 163.942 61.3298C157.961 74.433 149.196 86.3388 138.146 96.3675C127.096 106.396 113.977 114.351 99.5393 119.779C85.1016 125.206 69.6273 128 54 128C38.3727 128 22.8984 125.206 8.46066 119.779C-5.97708 114.351 -19.0955 106.396 -30.1457 96.3675C-41.1959 86.3388 -49.9614 74.433 -55.9417 61.3298C-61.922 48.2266 -65 34.1828 -65 20H-21.9592C-21.9592 29.053 -19.9944 38.0174 -16.1771 46.3813C-12.3598 54.7452 -6.76472 62.3449 0.288734 68.7463C7.3422 75.1478 15.7159 80.2257 24.9317 83.6902C34.1475 87.1546 44.0249 88.9378 54 88.9378C63.9751 88.9378 73.8525 87.1546 83.0683 83.6902C92.2841 80.2257 100.658 75.1478 107.711 68.7464C114.765 62.3449 120.36 54.7452 124.177 46.3813C127.994 38.0174 129.959 29.053 129.959 20H173Z" fill="url(#paint2_linear_851_95)" fill-opacity="0.25"/>
<defs>
<linearGradient id="paint0_linear_851_95" x1="1069.53" y1="-158" x2="1013.18" y2="204.489" gradientUnits="userSpaceOnUse">
<stop stop-color="white"/>
<stop offset="1" stop-color="white" stop-opacity="0"/>
</linearGradient>
<linearGradient id="paint1_linear_851_95" x1="286" y1="149" x2="495" y2="149" gradientUnits="userSpaceOnUse">
<stop stop-color="white"/>
<stop offset="1" stop-color="white" stop-opacity="0"/>
</linearGradient>
<linearGradient id="paint2_linear_851_95" x1="-48" y1="128" x2="161" y2="128" gradientUnits="userSpaceOnUse">
<stop stop-color="white"/>
<stop offset="1" stop-color="white" stop-opacity="0"/>
</linearGradient>
</defs>
</svg>
