<svg width="339" height="350" viewBox="0 0 339 350" fill="none" xmlns="http://www.w3.org/2000/svg">
    <mask id="mask0_797_98" style="mask-type:alpha" maskUnits="userSpaceOnUse" x="150" y="72" width="91" height="146">
        <path d="M240.014 72H229.809C210.468 72 193.324 84.4481 187.336 102.839L150.002 217.509H172.983C184.705 217.509 195.095 209.965 198.724 198.819L240.014 72Z" fill="#D9D9D9"/>
    </mask>
    <g mask="url(#mask0_797_98)">
        <path d="M236.346 73.0468H226.141C206.799 73.0468 189.655 85.4949 183.667 103.886L146.333 218.556H169.314C181.037 218.556 191.427 211.011 195.056 199.865L236.346 73.0468Z" fill="url(#paint0_linear_797_98)"/>
    </g>
    <mask id="mask1_797_98" style="mask-type:alpha" maskUnits="userSpaceOnUse" x="83" y="72" width="91" height="146">
        <path d="M83 72C108.767 73.636 130.96 90.7518 139.09 115.257L173.013 217.509H150.031C138.309 217.509 127.919 209.965 124.29 198.819L83 72Z" fill="#D9D9D9"/>
    </mask>
    <g mask="url(#mask1_797_98)">
        <mask id="mask2_797_98" style="mask-type:alpha" maskUnits="userSpaceOnUse" x="58" y="-2" width="85" height="147">
            <path d="M58.9424 -1.09344C84.7595 0.545739 107.057 17.5534 115.462 42.0187L142.971 122.082L106.317 144.416L58.9424 -1.09344Z" fill="url(#paint1_linear_797_98)"/>
        </mask>
        <g mask="url(#mask2_797_98)">
            <path d="M58.9424 -1.09344C84.7595 0.545739 107.057 17.5534 115.462 42.0187L142.971 122.082L106.317 144.416L58.9424 -1.09344Z" fill="url(#paint2_linear_797_98)"/>
        </g>
        <path d="M58.3994 -0.754578C84.2166 0.884606 106.513 17.8924 114.919 42.3577L142.428 122.42L130.886 129.452L137.959 124.934C137.95 124.896 136.398 118.331 135.038 114.246C133.726 110.307 131.162 104.383 131.144 104.34C124.329 86.874 102.659 76.4195 87.7109 75.4026C87.7481 75.4892 95.988 94.6667 100.272 107.33C104.442 119.656 109.231 138.72 110.079 142.13L105.774 144.754L58.3994 -0.754578Z" fill="url(#paint3_linear_797_98)"/>
        <path d="M108.041 151.861L150.679 126.82L173.289 217.771H152.614L143.193 217.247L135.08 213.845L129.846 209.396L126.182 203.9L108.041 151.861Z" fill="url(#paint4_linear_797_98)"/>
    </g>
    <mask id="mask3_797_98" style="mask-type:alpha" maskUnits="userSpaceOnUse" x="83" y="72" width="154" height="146">
        <mask id="mask4_797_98" style="mask-type:alpha" maskUnits="userSpaceOnUse" x="150" y="72" width="91" height="146">
            <path d="M240.014 72H229.809C210.468 72 193.324 84.4481 187.336 102.839L150.002 217.509H172.983C184.705 217.509 195.095 209.965 198.724 198.819L240.014 72Z" fill="#D9D9D9"/>
        </mask>
        <g mask="url(#mask4_797_98)">
            <path d="M236.346 73.0468H226.141C206.799 73.0468 189.655 85.4949 183.667 103.886L146.333 218.556H169.314C181.037 218.556 191.427 211.011 195.056 199.865L236.346 73.0468Z" fill="url(#paint5_linear_797_98)"/>
        </g>
        <mask id="mask5_797_98" style="mask-type:alpha" maskUnits="userSpaceOnUse" x="83" y="72" width="172" height="278">
            <path d="M83 72C132.229 75.1256 174.63 107.826 190.162 154.645L254.972 350H211.065C188.67 350 168.819 335.586 161.885 314.291L83 72Z" fill="#D9D9D9"/>
        </mask>
        <g mask="url(#mask5_797_98)">
            <path d="M59.9893 -1.0932C85.8064 0.545983 108.103 17.5536 116.509 42.0189L144.017 122.082L107.364 144.416L59.9893 -1.0932Z" fill="url(#paint6_linear_797_98)"/>
            <path d="M108.041 151.861L150.679 126.82L173.289 217.771H152.614L143.193 217.247L135.08 213.845L129.846 209.396L126.182 203.9L108.041 151.861Z" fill="url(#paint7_linear_797_98)"/>
        </g>
    </mask>
    <g mask="url(#mask3_797_98)">
        <path d="M219.611 140.923L207.368 201.342L183.923 225.163L147.975 228.067L122.446 211.219L107.077 147.604L111.002 144.867C119.451 180.073 135.038 210.181 157.575 210.181C170.847 210.181 185.455 200.486 193.6 185.113L205.217 160.718L218.277 128.73L219.611 140.923Z" fill="url(#paint8_linear_797_98)"/>
    </g>
    <mask id="mask6_797_98" style="mask-type:alpha" maskUnits="userSpaceOnUse" x="0" y="0" width="339" height="72">
        <path d="M338.649 71.9669C338.649 73.7874 260.704 0 167.189 0C73.6737 0 0 73.7874 0 71.9669C15.3751 71.9669 73.6737 21.3103 167.189 21.3103C260.704 21.3103 325.864 72.4527 338.649 71.9669Z" fill="url(#paint9_linear_797_98)"/>
    </mask>
    <g mask="url(#mask6_797_98)">
        <path d="M358.802 81.8964C358.802 83.8006 271.984 6.62073 167.822 6.62073C63.661 6.62073 -18.3999 83.8006 -18.3999 81.8964C-1.27446 81.8964 63.661 28.9109 167.822 28.9109C271.984 28.9109 344.561 82.4046 358.802 81.8964Z" fill="url(#paint10_linear_797_98)"/>
        <path d="M338.649 66.5851C338.649 68.5416 260.704 -10.7586 167.189 -10.7586C73.6737 -10.7586 0 68.5416 0 66.5851C15.3751 66.5851 73.6737 12.1439 167.189 12.1439C260.704 12.1439 325.864 67.1073 338.649 66.5851Z" fill="url(#paint11_linear_797_98)"/>
    </g>
    <defs>
        <linearGradient id="paint0_linear_797_98" x1="257.82" y1="23.0607" x2="119.901" y2="257.288" gradientUnits="userSpaceOnUse">
            <stop stop-color="white"/>
            <stop offset="0.474208" stop-color="#7C3AED"/>
            <stop offset="0.688674" stop-color="#2C18A3"/>
        </linearGradient>
        <linearGradient id="paint1_linear_797_98" x1="100.956" y1="-1.09345" x2="26.995" y2="129.314" gradientUnits="userSpaceOnUse">
            <stop stop-color="#4361EE"/>
            <stop offset="1" stop-color="#7C3AED"/>
        </linearGradient>
        <linearGradient id="paint2_linear_797_98" x1="100.956" y1="-1.09345" x2="26.995" y2="129.314" gradientUnits="userSpaceOnUse">
            <stop offset="1" stop-color="#7C3AED"/>
        </linearGradient>
        <linearGradient id="paint3_linear_797_98" x1="-36.8618" y1="131.407" x2="87.1939" y2="54.963" gradientUnits="userSpaceOnUse">
            <stop offset="0.422047" stop-color="white"/>
            <stop offset="1" stop-color="white" stop-opacity="0"/>
        </linearGradient>
        <linearGradient id="paint4_linear_797_98" x1="112.05" y1="138.473" x2="157.848" y2="236.09" gradientUnits="userSpaceOnUse">
            <stop stop-color="#7F96FD"/>
            <stop offset="1" stop-color="#4361EE"/>
        </linearGradient>
        <linearGradient id="paint5_linear_797_98" x1="257.82" y1="23.0607" x2="119.901" y2="257.288" gradientUnits="userSpaceOnUse">
            <stop stop-color="white"/>
            <stop offset="0.474208" stop-color="#7C3AED"/>
            <stop offset="0.688674" stop-color="#2C18A3"/>
        </linearGradient>
        <linearGradient id="paint6_linear_797_98" x1="102.003" y1="-1.0932" x2="28.0419" y2="129.314" gradientUnits="userSpaceOnUse">
            <stop stop-color="#4361EE"/>
            <stop offset="1" stop-color="#7C3AED"/>
        </linearGradient>
        <linearGradient id="paint7_linear_797_98" x1="112.05" y1="138.473" x2="157.848" y2="236.09" gradientUnits="userSpaceOnUse">
            <stop stop-color="#7F96FD"/>
            <stop offset="1" stop-color="#4361EE"/>
        </linearGradient>
        <linearGradient id="paint8_linear_797_98" x1="172.766" y1="225.187" x2="99.5896" y2="162.619" gradientUnits="userSpaceOnUse">
            <stop stop-color="white" stop-opacity="0"/>
            <stop offset="1" stop-color="white" stop-opacity="0.4"/>
        </linearGradient>
        <linearGradient id="paint9_linear_797_98" x1="0" y1="36" x2="338.649" y2="36" gradientUnits="userSpaceOnUse">
            <stop offset="0.0384615" stop-color="#FF5B5B"/>
            <stop offset="0.625" stop-color="#FF0080"/>
            <stop offset="0.75" stop-color="#FF1777"/>
            <stop offset="1" stop-color="#FF0080"/>
        </linearGradient>
        <linearGradient id="paint10_linear_797_98" x1="-48.1662" y1="81.9311" x2="357.618" y2="34.207" gradientUnits="userSpaceOnUse">
            <stop offset="0.125" stop-color="#F980BF"/>
            <stop offset="0.274038" stop-color="#E962DA"/>
            <stop offset="0.456731" stop-color="#7C3AED"/>
            <stop offset="1" stop-color="#43AAEE"/>
        </linearGradient>
        <linearGradient id="paint11_linear_797_98" x1="-5.03812" y1="66.6207" x2="338.407" y2="26.041" gradientUnits="userSpaceOnUse">
            <stop stop-color="#FFBCAA"/>
            <stop offset="0.168269" stop-color="#FF93DB"/>
            <stop offset="0.341346" stop-color="#AA5DED"/>
            <stop offset="0.788462" stop-color="#7CBFFA"/>
        </linearGradient>
    </defs>
</svg>